<svg width="457" height="337" viewBox="0 0 457 337" fill="none" xmlns="http://www.w3.org/2000/svg">
<path fill-rule="evenodd" clip-rule="evenodd" d="M187.774 56.09L184.929 60.967H182.2L181.33 62.401H184.087L178.018 72.784C176.741 74.992 177.642 77.03 180.08 77.03C181.303 77.03 182.618 76.393 183.933 75.409L183.155 76.743H186.201L190.789 68.856C195.433 63.089 197.495 63.836 196.188 66.046L192.268 72.786C190.99 74.996 191.891 77.034 194.329 77.034C196.125 77.034 198.117 75.664 200.022 73.829C200.168 75.686 201.689 77.034 204.112 77.034C207.535 77.034 210.932 74.394 213.428 71.526C213.231 71.123 212.709 70.665 212.302 70.493L212.099 70.719C209.921 73.216 207.135 75.194 205.017 75.194C203.157 75.194 202.053 74.048 203.447 71.639L203.737 71.119C205.683 71.924 209.341 71.55 211.605 67.679L212.042 66.932C213.667 64.179 212.1 62.114 209.632 62.114C207.193 62.114 205.249 63.377 203.972 65.555L201.042 70.52L200.866 70.72C198.689 73.214 196.571 75.192 195.235 75.192C194.569 75.192 194.189 74.732 194.885 73.557L199.24 66.014C200.546 63.749 199.3 62.114 197.616 62.114C196.309 62.114 194.914 62.831 193.406 64.379L198.224 56.09H195.205L186.782 70.528L186.612 70.718C184.436 73.214 182.315 75.192 180.979 75.192C180.312 75.192 179.935 74.732 180.633 73.557L187.105 62.399H189.572L190.444 60.966H187.948L190.793 56.091L187.774 56.09ZM155.465 60.969L158.31 56.094H161.329L158.483 60.967H160.982L160.11 62.403H157.645L151.169 73.561C150.472 74.736 150.85 75.196 151.517 75.196C152.852 75.196 154.974 73.217 157.15 70.721L157.306 70.545L158.543 68.455L160.023 65.902C161.765 62.918 163.563 62.002 165.885 62.002C168.731 62.002 170.414 64.955 168.586 68.082L165.741 72.928C167.252 72.899 168.935 72.184 170.299 70.721L170.504 70.493C170.91 70.665 171.432 71.122 171.632 71.526C170.092 73.332 167.248 74.422 165.448 74.422H164.782C161.513 78.506 156.166 77.763 156.172 73.961C154.306 75.73 152.369 77.034 150.615 77.034C148.177 77.034 147.276 74.996 148.554 72.787L154.622 62.404H151.865L152.735 60.969H155.465ZM166.263 66.967C167.291 65.225 166.825 64.02 165.841 63.93C165.076 63.86 163.998 64.466 163.071 66.022L161.62 68.459L159.326 72.387C157.526 75.484 160.983 75.943 162.405 73.533L162.435 73.477C162.26 73.189 162.144 72.844 162.144 72.473C162.144 71.498 162.927 70.694 163.914 70.694H164.059L166.263 66.967ZM209.575 66.936C210.587 65.192 210.055 64.275 209.086 64.332V64.333C208.334 64.377 207.317 65.011 206.554 66.303L204.608 69.66C205.741 70.062 207.688 70.12 209.138 67.682L209.575 66.936ZM253.404 58.869C251.69 60.389 251.546 62.083 252.621 63.459L252.883 63.803L252.821 63.8899C251.492 65.7458 249.718 68.2255 247.773 70.487L247.775 70.49L247.572 70.719C246.207 72.18 244.526 72.899 243.014 72.928L245.857 68.08C247.687 64.954 246.004 62 243.157 62C240.837 62 239.037 62.918 237.297 65.9L235.813 68.453L234.575 70.545L234.421 70.721C231.924 73.561 229.778 75.392 227.396 76.397L234.159 64.983H232.389C232.389 63.749 231.113 62.113 229.225 62.113C227.601 62.113 225.335 63.378 224.057 65.557L219.819 72.784C218.541 74.992 219.441 77.03 221.879 77.03C222.722 77.03 223.739 76.656 224.756 76.026L223.913 77.43C219.849 78.663 217.293 80.298 217.293 82.536C217.293 85.405 221.735 86.007 223.913 82.336L226.205 78.406C228.621 77.663 230.988 76.259 233.445 73.942C233.424 77.759 238.782 78.509 242.055 74.418H242.723C244.523 74.418 247.368 73.329 248.907 71.522C250.356 69.858 251.487 68.367 253.897 65.127L254.302 65.616C254.679 66.103 254.827 66.706 254.477 67.307L251.284 72.786C250.004 74.996 250.905 77.032 253.345 77.032C254.875 77.032 256.549 76.037 258.187 74.61C258.137 75.996 259.074 77.032 260.806 77.032C261.646 77.032 262.663 76.659 263.68 76.028L262.838 77.43C258.773 78.663 256.222 80.298 256.222 82.536C256.222 85.405 260.662 86.006 262.838 82.336L265.13 78.406C267.59 77.648 270 76.2 272.507 73.807C272.643 75.675 274.165 77.032 276.597 77.032C279.055 77.032 281.496 75.669 283.601 73.842C283.484 77.747 288.911 78.545 292.213 74.42H292.881C293.826 74.42 295.056 74.112 296.238 73.567C295.425 75.64 296.172 77.032 297.899 77.032C299.555 77.032 301.412 75.54 302.863 74.164C302.573 75.769 303.53 77.032 305.447 77.032C307.943 77.032 310.817 74.395 313.315 71.526L313.313 71.524C314.668 69.9796 315.896 68.3481 316.883 67.0383L316.883 67.0381C317.143 66.6925 317.387 66.3693 317.611 66.076C317.211 67.1162 317.017 68.435 316.827 69.7278C316.452 72.2827 316.091 74.736 314.185 74.736C313.169 74.736 312.765 73.646 312.765 73.646L310.875 74.621C310.875 74.621 311.426 77.033 314.185 77.033C314.453 77.033 314.697 77.0074 314.959 76.9799L315.025 76.973C315.04 76.973 315.055 76.9662 315.071 76.9595C315.086 76.9527 315.101 76.946 315.116 76.946C318.192 76.546 321.24 74.136 323.504 71.526C323.331 71.067 322.808 70.608 322.374 70.492L322.171 70.721C321.106 71.9533 319.886 73.0423 318.541 73.961C318.916 72.8472 319.113 71.4997 319.326 70.043C319.657 67.7852 320.025 65.2653 321.155 62.947L318.891 61.742C318.66 62.0549 318.379 62.4432 318.056 62.8882C316.633 64.8511 314.41 67.9181 312.185 70.49V70.492L311.982 70.721C309.806 73.217 307.687 75.193 306.351 75.193C305.684 75.193 305.306 74.734 306.004 73.559L312.448 62.401H309.428L304.058 71.666C301.765 73.73 299.996 74.878 299.414 74.619C298.714 74.3277 299.313 73.3433 299.705 72.6988C299.736 72.6486 299.765 72.6005 299.792 72.555L305.685 62.403H302.665L297.931 70.495L297.732 70.721C296.368 72.184 294.685 72.901 293.174 72.931L296.019 68.082C297.847 64.955 296.169 62.002 293.32 62.002C290.997 62.002 289.197 62.92 287.456 65.905L285.974 68.455L284.737 70.545L284.582 70.723C282.406 73.219 279.618 75.196 277.499 75.196C275.641 75.196 274.539 74.05 275.932 71.641L276.222 71.123C278.166 71.927 281.826 71.553 284.089 67.68L284.527 66.934C286.15 64.18 284.585 62.115 282.117 62.115C279.677 62.115 277.73 63.38 276.454 65.559L273.528 70.524L273.353 70.721C270.854 73.561 268.708 75.394 266.325 76.399L273.089 64.983H271.317C271.317 63.749 270.04 62.115 268.153 62.115C266.528 62.115 264.264 63.378 262.986 65.557L260.09 70.494L260.082 70.49L259.879 70.72C257.703 73.215 255.581 75.194 254.245 75.194C253.578 75.194 253.203 74.734 253.899 73.559L256.917 68.339C257.962 66.532 257.468 65.469 256.48 64.293L254.797 62.283C254.362 61.738 254.362 61.137 254.972 60.563L253.404 58.869ZM243.534 66.967C244.561 65.225 244.094 64.019 243.11 63.929V63.93C242.346 63.86 241.27 64.466 240.342 66.022L238.889 68.459L236.597 72.387C234.797 75.484 238.253 75.943 239.675 73.533L239.703 73.477C239.529 73.189 239.413 72.844 239.413 72.473C239.413 71.498 240.197 70.694 241.183 70.694H241.33L243.534 66.967ZM293.268 63.929C294.252 64.019 294.721 65.225 293.694 66.967L291.488 70.694H291.341C290.355 70.694 289.573 71.498 289.573 72.473C289.573 72.844 289.689 73.189 289.862 73.477L289.832 73.533C288.411 75.943 284.957 75.484 286.757 72.387L289.049 68.459L290.5 66.022C291.427 64.466 292.503 63.86 293.268 63.93V63.929ZM282.053 66.936C283.065 65.193 282.536 64.277 281.568 64.334V64.335C280.816 64.379 279.798 65.013 279.036 66.305L277.088 69.66C278.221 70.062 280.167 70.12 281.618 67.682L282.053 66.936ZM229.165 64.535C230.188 64.529 230.843 65.419 230.01 66.935L227.718 70.895C225.888 73.792 224.058 75.195 222.78 75.195C222.113 75.195 221.735 74.736 222.431 73.561L226.643 66.305C227.353 65.088 228.37 64.54 229.165 64.535ZM268.933 66.935C269.766 65.419 269.111 64.529 268.088 64.535C267.293 64.54 266.276 65.088 265.566 66.305L261.356 73.561C260.662 74.736 261.038 75.195 261.705 75.195C262.981 75.195 264.813 73.792 266.641 70.895L268.933 66.935ZM222.75 79.443L222.749 79.4443C220.459 80.3322 219.732 81.2201 219.732 81.994C219.732 82.797 220.748 82.968 221.386 81.85L222.749 79.4443L222.75 79.444V79.443ZM261.674 79.4443L261.675 79.443V79.444L261.674 79.4443ZM261.674 79.4443L260.313 81.85C259.673 82.968 258.657 82.797 258.657 81.994C258.657 81.2201 259.383 80.3322 261.674 79.4443ZM107.025 67.831H135.947V69.781H107.025V67.831ZM362.977 67.831H334.055V69.781H362.977V67.831Z" fill="#766458"/>
<path fill-rule="evenodd" clip-rule="evenodd" d="M200.824 37.364V45.1H180.008V0.352997H200.824V8.023H187.624V18.827H198.159V26.497H187.624V37.363L200.824 37.364ZM222.17 45.1V37.364L211.573 37.363V0.352997H203.957V45.1H222.17ZM328.7 45.1V37.364H315.499V26.497H326.034V18.827H315.499V8.024H328.7V0.352997H307.884V45.1H328.7ZM303.459 0.353997H295.908L289.115 21.959L282.324 0.353997H274.772V45.101H282.389V23.111L285.371 34.489H292.796L295.843 23.111V45.101H303.459V0.353997ZM263.999 8.024H258.476V37.364H264L263.999 8.024ZM271.679 5.085C271.679 2.463 269.521 0.353997 266.981 0.353997L255.557 0.354997C252.957 0.354997 250.861 2.464 250.861 5.085V40.37C250.861 42.927 252.957 45.1 255.557 45.1H266.981C269.521 45.1 271.679 42.927 271.679 40.37V5.085ZM238.971 28.606L246.649 26.816V40.368C246.649 42.925 244.492 45.098 241.953 45.098H230.528C227.928 45.098 225.833 42.925 225.833 40.368V5.084C225.833 2.462 227.928 0.353997 230.528 0.353997H241.951C244.491 0.353997 246.648 2.462 246.648 5.084V14.161L238.97 15.951V8.023H233.448V37.363H238.97L238.971 28.606ZM176.241 0.353997H168.564L167.994 37.364H167.232L162.344 0.353997H154.792L150.032 37.364H149.208L148.573 0.353997H140.957L142.099 45.1H156.632L158.599 26.626L160.567 45.1H175.037L176.241 0.353997Z" fill="#81B3D3"/>
<path fill-rule="evenodd" clip-rule="evenodd" d="M9.289 174.909C9.366 174.987 9.405 175.064 9.405 175.142C9.483 175.142 9.56 175.18 9.637 175.258C11.727 177.58 14.089 179.748 16.721 181.761C19.353 183.696 22.373 184.741 25.779 184.896C25.857 184.896 25.934 184.936 26.011 185.013H26.36C26.437 185.013 26.515 185.051 26.592 185.129H27.869C28.257 185.051 28.605 184.974 28.915 184.896C30.156 184.663 31.3395 184.19 32.399 183.503C33.559 182.806 34.45 181.954 35.069 180.948L35.302 180.483L35.534 180.019C35.689 179.477 35.805 178.974 35.883 178.509C35.96 178.045 35.999 177.619 35.999 177.232C35.999 175.142 35.069 173.4 33.212 172.006C31.4805 170.563 29.517 169.425 27.405 168.638C26.6107 168.345 25.7954 168.112 24.966 167.942C24.2379 167.722 23.5021 167.528 22.76 167.361H22.528C22.45 167.284 22.373 167.245 22.296 167.245C18.5304 166.327 14.9274 164.839 11.612 162.832C8.282 160.742 5.999 157.761 4.76 153.89C4.51737 153.08 4.28502 152.267 4.063 151.451C3.90406 150.567 3.78792 149.676 3.715 148.781C3.64366 148.515 3.60471 148.242 3.599 147.967V145.18C3.676 144.561 3.792 143.942 3.947 143.322C4.18741 141.741 4.57612 140.185 5.108 138.677C5.65 137.129 6.347 135.735 7.198 134.497C9.676 130.393 12.85 127.451 16.721 125.671C20.67 123.89 24.773 123 29.031 123C30.038 123 31.044 123.077 32.051 123.232C33.1384 123.31 34.2228 123.426 35.302 123.58C38.126 124.055 40.8904 124.834 43.547 125.903C46.334 126.987 48.889 128.264 51.212 129.735L44.825 144.019C42.7406 142.475 40.5256 141.115 38.205 139.955C35.883 138.793 33.367 138.213 30.657 138.213H29.727C27.947 138.445 26.283 139.258 24.734 140.651C23.186 141.967 22.412 143.4 22.412 144.948V145.645C22.489 145.877 22.605 146.109 22.76 146.342C22.915 146.884 23.186 147.387 23.573 147.852C23.96 148.316 24.386 148.742 24.85 149.129C25.702 149.826 26.94 150.484 28.567 151.103C30.192 151.645 31.896 152.187 33.677 152.729C35.147 153.116 36.579 153.503 37.973 153.89C39.367 154.2 40.528 154.51 41.457 154.82C45.792 156.368 49.044 158.961 51.212 162.6C53.379 166.161 54.502 169.955 54.579 173.98V174.561C54.579 175.026 54.541 175.491 54.463 175.955V177.232C53.999 181.258 52.683 185.09 50.515 188.729C48.425 192.368 45.599 195.155 42.038 197.091C40.7162 197.712 39.3588 198.255 37.973 198.716C36.589 199.101 35.1952 199.45 33.793 199.762C32.643 199.993 31.4792 200.148 30.309 200.226C29.1927 200.378 28.0676 200.455 26.941 200.458H25.663C21.018 200.304 16.451 199.297 11.96 197.438C7.47 195.503 3.483 192.948 0 189.774L9.289 174.909ZM225.183 128.663C218.835 132.147 213.88 137.18 210.319 143.76L210.318 143.759C209.295 145.655 208.44 147.636 207.763 149.681C207.078 151.653 206.535 153.671 206.138 155.72C205.905 156.805 205.75 157.849 205.673 158.855C205.596 159.862 205.557 160.869 205.557 161.875C205.557 168.688 207.415 175.269 211.131 181.617C214.847 187.888 219.957 192.727 226.46 196.133C228.828 197.359 231.319 198.332 233.892 199.036C236.48 199.725 239.122 200.191 241.789 200.43H243.299C243.838 200.507 244.381 200.546 244.925 200.546C252.511 200.546 259.751 198.494 266.641 194.391C273.531 190.211 278.602 184.366 281.853 176.856C282.461 175.344 282.965 173.792 283.363 172.211C283.821 170.617 284.132 168.985 284.292 167.334C284.447 166.559 284.525 165.785 284.525 165.011C284.602 164.159 284.641 163.346 284.641 162.572C284.641 156.148 283.131 149.992 280.112 144.108C277.093 138.147 272.835 133.386 267.338 129.824C264.789 128.201 262.061 126.876 259.209 125.876C256.465 124.88 253.623 124.18 250.731 123.786C249.802 123.708 248.835 123.631 247.828 123.553C246.899 123.476 245.97 123.437 245.041 123.437C238.151 123.437 231.531 125.179 225.183 128.663ZM298.328 198.744V124.77H317.838L345.709 162.744C346.429 163.869 347.088 165.032 347.683 166.228C348.387 167.402 349.045 168.603 349.657 169.828L351.051 172.848C351.515 173.854 351.98 174.821 352.444 175.75C352.371 174.932 352.255 174.118 352.096 173.312C352.019 172.538 351.941 171.725 351.864 170.873C351.706 169.289 351.59 167.702 351.515 166.112C351.435 164.449 351.396 162.783 351.399 161.118V124.77H370.792V198.744H351.399L323.296 160.538C322.522 159.609 321.786 158.525 321.09 157.287C320.386 155.955 319.727 154.599 319.116 153.222C318.666 152.247 318.202 151.279 317.722 150.319C317.363 149.379 316.975 148.449 316.561 147.532C316.948 149.932 317.258 152.371 317.49 154.848C317.722 157.325 317.832 159.803 317.838 162.28V198.744H298.328ZM405.788 124.77L380.356 198.744H400.33L404.162 185.389H432.73L436.446 198.744H456.652L430.988 124.77H405.788ZM408.46 171.105L416.008 146.602C416.315 145.527 416.587 144.443 416.821 143.35C417.137 142.239 417.408 141.116 417.633 139.983C417.71 139.828 417.75 139.712 417.75 139.634C417.75 139.48 417.788 139.325 417.866 139.17C417.943 138.705 418.021 138.279 418.098 137.892C418.253 137.428 418.369 137.002 418.446 136.615C418.524 137.002 418.601 137.428 418.679 137.892C418.756 138.28 418.872 138.705 419.027 139.17C419.269 140.453 419.54 141.731 419.84 143.002C420.216 144.206 420.603 145.406 421.001 146.602L428.55 171.105H408.46ZM263.158 170.353C263.39 169.579 263.584 168.766 263.738 167.914C263.971 167.063 264.126 166.211 264.203 165.359C264.281 164.818 264.319 164.276 264.319 163.734C264.397 163.192 264.435 162.688 264.435 162.224C264.435 161.757 264.396 161.291 264.319 160.83V159.437C263.932 156.107 262.926 152.895 261.299 149.798C259.674 146.701 257.429 144.301 254.564 142.598C253.79 142.211 253.016 141.863 252.242 141.553C251.468 141.243 250.693 140.973 249.919 140.74C249.151 140.586 248.376 140.47 247.597 140.392C246.832 140.238 246.054 140.16 245.274 140.159C241.326 140.159 237.687 141.399 234.358 143.876C231.029 146.353 228.706 149.643 227.39 153.746L227.158 154.211V154.675C226.919 155.398 226.725 156.135 226.578 156.882C226.423 157.579 226.268 158.314 226.113 159.088L225.881 160.714V163.153C225.881 163.385 225.919 163.656 225.997 163.966C226.229 168.069 227.467 171.979 229.713 175.695C232.035 179.333 235.21 181.733 239.235 182.895L240.629 183.359C241.093 183.437 241.597 183.514 242.139 183.591L243.532 183.824H244.926C249.029 183.824 252.706 182.624 255.958 180.224C259.287 177.746 261.687 174.456 263.158 170.353ZM169.157 196.886C173.415 195.956 177.363 194.253 181.002 191.776H181.003C185.493 188.524 188.938 184.344 191.338 179.234C193.738 174.124 195.054 168.821 195.287 163.324V160.421C195.287 159.956 195.248 159.492 195.17 159.028C194.861 153.762 193.506 148.653 191.106 143.698C188.706 138.744 185.338 134.757 181.003 131.738C177.639 129.279 173.805 127.54 169.739 126.628C165.713 125.699 161.609 125.118 157.429 124.886C156.268 124.808 155.068 124.77 153.829 124.77H128.745V198.744H152.551C153.791 198.744 155.03 198.705 156.267 198.628C160.602 198.396 164.899 197.816 169.157 196.886ZM148.602 182.137C148.834 182.137 149.067 182.176 149.299 182.253H150.112C150.422 182.253 150.692 182.293 150.925 182.37H154.06C154.912 182.292 155.725 182.215 156.499 182.137C158.503 181.984 160.486 181.634 162.421 181.092C164.357 180.55 166.099 179.737 167.647 178.653C170.125 176.873 171.944 174.473 173.105 171.453C174.337 168.389 174.968 165.117 174.963 161.815V160.885C174.963 160.576 174.925 160.266 174.847 159.957C174.695 157.024 173.985 154.147 172.757 151.479C171.518 148.692 169.815 146.486 167.647 144.859C166.057 143.561 164.189 142.647 162.189 142.189C160.208 141.718 158.185 141.446 156.15 141.376H148.602V182.137ZM68.692 124.769V198.743H114.098V182.137H88.55V169.595H112.589V153.801H88.55V140.911H114.098V124.769H68.692ZM351.039 321.152C350.926 321.443 350.869 321.735 350.869 322.029C350.869 322.747 351.116 323.298 351.609 323.678C352.104 324.062 352.679 324.252 353.329 324.252C353.305 324.633 353.205 324.97 353.025 325.262C352.846 325.553 352.617 325.81 352.349 326.022C352.082 326.235 351.795 326.415 351.492 326.561C351.188 326.706 350.914 326.823 350.664 326.913L352.014 328.903C352.047 328.887 352.079 328.871 352.112 328.856L352.141 328.842L352.198 328.816C352.26 328.787 352.322 328.76 352.384 328.733C352.59 328.645 352.83 328.525 353.11 328.381C353.418 328.218 353.716 328.038 354.003 327.841C354.305 327.638 354.588 327.407 354.846 327.15C355.399 326.601 355.839 325.948 356.142 325.23C356.446 324.511 356.597 323.722 356.597 322.872C356.597 322.421 356.531 321.995 356.395 321.591C356.26 321.187 356.07 320.839 355.823 320.547C355.532 320.23 355.176 319.99 354.762 319.82C354.346 319.652 353.914 319.568 353.464 319.568C353.059 319.568 352.694 319.642 352.369 319.788C352.059 319.923 351.778 320.117 351.542 320.36C351.319 320.596 351.151 320.859 351.039 321.152ZM358.706 322.029C358.706 321.736 358.763 321.443 358.873 321.152C358.986 320.859 359.155 320.596 359.379 320.36C359.606 320.125 359.879 319.932 360.204 319.788C360.531 319.643 360.894 319.568 361.3 319.568C361.75 319.568 362.183 319.652 362.597 319.82C363.014 319.99 363.367 320.23 363.658 320.547C363.908 320.839 364.098 321.187 364.232 321.591C364.366 321.996 364.434 322.422 364.434 322.872C364.443 323.681 364.288 324.483 363.979 325.23C363.675 325.948 363.234 326.6 362.681 327.15C362.422 327.407 362.139 327.638 361.836 327.841C361.55 328.04 361.252 328.22 360.943 328.381C360.663 328.526 360.423 328.645 360.218 328.733C360.094 328.787 359.97 328.844 359.848 328.903L358.5 326.913C358.747 326.824 359.02 326.706 359.325 326.561C359.629 326.415 359.915 326.235 360.185 326.022C360.453 325.808 360.679 325.555 360.858 325.262C361.039 324.97 361.14 324.634 361.162 324.252C360.54 324.263 359.934 324.06 359.443 323.678C358.953 323.298 358.706 322.747 358.706 322.03V322.029ZM93.976 264.188C94.089 263.897 94.146 263.604 94.146 263.313H94.147C94.147 262.594 93.899 262.045 93.407 261.664C92.913 261.282 92.339 261.092 91.689 261.092C91.712 260.709 91.812 260.371 91.992 260.079C92.172 259.787 92.395 259.534 92.665 259.321C92.935 259.107 93.222 258.928 93.525 258.782C93.7943 258.652 94.0696 258.534 94.35 258.43L93.002 256.442C92.958 256.464 92.835 256.522 92.632 256.609C92.429 256.698 92.187 256.817 91.907 256.961C91.5989 257.123 91.3007 257.303 91.014 257.501C90.7106 257.703 90.4278 257.934 90.17 258.191C89.617 258.741 89.1764 259.393 88.873 260.111C88.57 260.831 88.418 261.619 88.418 262.471C88.4158 262.906 88.4841 263.338 88.62 263.751C88.7421 264.133 88.9367 264.488 89.193 264.796C89.4882 265.113 89.8503 265.361 90.253 265.521C90.6648 265.689 91.1054 265.774 91.55 265.773C92.2723 265.783 92.9672 265.497 93.473 264.981C93.6917 264.753 93.8627 264.483 93.976 264.188ZM86.31 263.313C86.3052 263.935 86.0647 264.532 85.637 264.983C85.4014 265.225 85.1208 265.419 84.811 265.554C84.485 265.7 84.119 265.774 83.715 265.774C83.27 265.775 82.8291 265.69 82.417 265.522C82.0144 265.361 81.6524 265.113 81.357 264.796C81.1 264.488 80.9054 264.133 80.784 263.751C80.6476 263.338 80.5793 262.906 80.582 262.471C80.582 261.619 80.732 260.831 81.037 260.111C81.34 259.393 81.7806 258.74 82.334 258.191C82.581 257.943 82.861 257.714 83.177 257.5C83.491 257.288 83.789 257.107 84.07 256.96C84.35 256.816 84.59 256.698 84.794 256.61L84.8507 256.584C85.0195 256.508 85.1254 256.461 85.166 256.44L86.513 258.428C86.265 258.518 85.991 258.636 85.687 258.781C85.384 258.928 85.097 259.107 84.83 259.319C84.5625 259.531 84.3337 259.788 84.154 260.078C83.975 260.37 83.874 260.708 83.852 261.09C84.502 261.09 85.076 261.28 85.57 261.663C86.063 262.045 86.31 262.593 86.31 263.313ZM335.475 320.187H331.66L343.541 299.551H347.317L335.475 320.187ZM331.479 321.675C330.243 321.675 329.298 322.655 329.298 323.893C329.298 325.131 330.244 326.073 331.479 326.073C332.711 326.073 333.696 325.129 333.696 323.893C333.696 322.657 332.711 321.675 331.479 321.675ZM306.217 314.26L305.127 316.148C305.962 318.619 309.266 317.239 310.396 315.277L312.211 312.153C313.556 309.863 310.577 308.192 306.217 314.26ZM330.219 319.128C330.001 318.548 329.347 317.965 328.802 317.821L328.547 318.113C327.218 319.673 325.691 321.052 324.005 322.217C324.475 320.806 324.722 319.098 324.988 317.252C325.4 314.393 325.86 311.203 327.273 308.267L324.438 306.74C324.16 307.122 323.822 307.593 323.437 308.132L323.436 308.133L323.436 308.133C321.659 310.616 318.852 314.537 316.046 317.821C316.052 317.831 316.062 317.839 316.067 317.846C316.061 317.843 316.054 317.839 316.047 317.835C316.039 317.829 316.03 317.824 316.022 317.821L315.769 318.113C313.042 321.273 310.392 323.779 308.719 323.779C307.885 323.779 307.085 322.943 307.085 321.236V319.674C309.737 320.001 312.535 318.256 314.315 315.17L315.331 313.427C318.853 307.397 313.114 305.397 309.263 308.923L314.638 299.586H310.859L300.084 318.281C299.877 318.098 299.645 317.944 299.395 317.824L299.139 318.116C296.416 321.276 292.928 323.782 290.276 323.782C287.951 323.782 286.571 322.329 288.315 319.278L292.199 312.521C294.379 308.779 298.231 309.397 295.977 313.321L295.433 314.265H298.523L299.068 313.321C301.102 309.833 299.139 307.217 296.053 307.217C293.002 307.217 290.566 308.817 288.968 311.577L285.25 317.957C285.23 317.945 285.21 317.933 285.19 317.921C285.131 317.885 285.072 317.849 285.017 317.825L284.762 318.117C282.038 321.277 279.387 323.783 277.715 323.783C276.879 323.783 276.409 323.203 277.279 321.713L285.345 307.58H281.565L274.846 319.314C271.973 321.929 269.761 323.382 269.032 323.056C268.156 322.686 268.905 321.44 269.396 320.624C269.434 320.56 269.471 320.499 269.505 320.441L276.879 307.58H273.101L265.763 320.275C265.257 320.736 264.454 321.166 263.73 321.555C263.286 321.793 262.872 322.015 262.573 322.219C263.044 320.807 263.29 319.099 263.557 317.252V317.252L263.557 317.251C263.969 314.393 264.43 311.204 265.842 308.269L263.01 306.742C261.447 308.885 252.727 320.44 249.312 324.435C249.637 324.907 250.184 325.38 250.728 325.743C252.871 323.273 260.066 314.009 261.41 312.229C260.909 313.547 260.667 315.219 260.43 316.857C259.961 320.094 259.511 323.201 257.122 323.201C255.852 323.201 255.342 321.819 255.342 321.819L252.981 323.055C252.981 323.055 253.671 326.105 257.121 326.105C257.455 326.105 257.757 326.075 258.085 326.042L258.085 326.042L258.177 326.033C258.184 326.033 258.19 326.032 258.197 326.03C258.203 326.028 258.209 326.025 258.215 326.022C258.22 326.02 258.225 326.018 258.23 326.015L258.23 326.015C258.241 326.01 258.251 326.004 258.262 326.001L258.267 325.999L258.27 325.998C258.275 325.998 258.279 325.997 258.283 325.997C260.203 325.743 262.861 324.859 264.643 323.627C264.631 325.164 265.559 326.105 267.143 326.105C269.211 326.105 271.538 324.216 273.353 322.473C272.992 324.508 274.188 326.105 276.588 326.105C278.934 326.105 281.547 324.219 284.025 321.742C284.059 324.252 285.993 326.105 289.151 326.105C292.217 326.105 295.265 324.392 297.892 322.089L295.787 325.743H299.603L303.926 318.223V321.237C303.926 324.469 304.543 326.105 307.596 326.105C310.719 326.105 314.317 322.764 317.441 319.13C317.439 319.127 317.437 319.124 317.434 319.12C317.428 319.113 317.422 319.105 317.421 319.096C317.435 319.108 317.452 319.119 317.468 319.13C319.181 317.156 320.733 315.065 321.971 313.396C322.282 312.977 322.574 312.584 322.843 312.226C322.343 313.544 322.102 315.214 321.865 316.852C321.396 320.09 320.946 323.199 318.556 323.199C317.286 323.199 316.776 321.817 316.776 321.817L314.414 323.053C314.414 323.053 315.105 326.103 318.556 326.103C318.884 326.103 319.182 326.074 319.508 326.041L319.612 326.031C319.628 326.031 319.643 326.024 319.659 326.016C319.678 326.006 319.697 325.996 319.717 325.996C323.57 325.484 327.385 322.434 330.218 319.126L330.219 319.128ZM215.445 318.042H215.628L218.388 313.32C220.676 309.395 217.044 307.615 214.391 312.12L212.575 315.208L209.705 320.185C207.452 324.109 211.776 324.689 213.555 321.639L213.592 321.566C213.374 321.204 213.229 320.769 213.229 320.297C213.229 319.059 214.21 318.042 215.445 318.042ZM190.198 332.173C189.398 333.59 188.126 333.373 188.126 332.357C188.126 331.377 189.035 330.251 191.941 329.123L190.198 332.173ZM155.353 323.746C156.915 323.746 159.168 322.038 161.456 318.443L164.397 313.283C166.251 309.867 162.219 308.96 160.184 312.482L154.917 321.675C154.046 323.166 154.518 323.746 155.353 323.746ZM149.402 303.693C150.528 301.766 151.764 300.931 152.817 300.931C154.235 300.931 154.888 301.875 154.888 303.256C154.888 306.78 150.524 314.089 144.716 313.137H143.953L149.402 303.693ZM241.925 318.079L242.179 317.787L242.18 317.788C242.69 318.006 243.343 318.588 243.598 319.099C240.472 322.732 236.878 326.074 233.752 326.074C230.699 326.074 229.574 323.497 231.172 320.698L236.076 312.16C237.712 309.362 235.132 308.419 229.355 315.649L223.579 325.712H219.764L222.304 321.318C220.618 322.248 218.75 322.768 217.37 322.768H216.535C212.297 328.126 205.269 326.923 205.789 321.646C202.537 324.865 199.423 326.824 196.264 327.818L193.358 332.796C190.636 337.446 185.076 336.682 185.076 333.049C185.076 330.217 188.273 328.108 193.396 326.584L195.467 323.024C193.758 324.548 191.689 326.074 189.872 326.074C187.99 326.074 187.031 324.742 187.484 322.664C185.31 324.654 183.077 326.074 181.044 326.074C177.993 326.074 176.867 323.498 178.465 320.698L183.369 312.164C185.004 309.365 182.424 308.422 176.647 315.652L170.871 325.715H167.057L168.449 323.304C166.507 324.953 164.539 326.077 162.729 326.077C160.805 326.077 159.641 325.062 159.461 323.608C157.644 325.097 155.755 326.077 154.229 326.077C151.554 326.077 150.358 324.096 151.181 321.722L150.957 321.935L150.957 321.935C148.467 324.304 146.604 326.077 142.5 326.077C137.16 326.077 135.599 320.993 138.25 316.415L139.375 314.451C136.325 312.853 134.617 309.946 134.617 306.933C134.617 304.387 135.814 301.811 138.504 299.883L139.739 302.101C138.105 303.371 137.305 305.115 137.305 306.858C137.305 308.966 138.469 311.073 140.685 312.236L146.571 302.099C148.277 299.121 150.748 297.667 152.819 297.667C155.615 297.667 157.832 299.882 157.832 303.297C157.832 304.787 157.359 306.53 156.306 308.383C153.327 313.578 148.749 315.65 144.716 315.65C143.955 315.65 143.264 315.573 142.574 315.466L141.519 317.318C139.269 321.17 140.83 323.749 143.409 323.749C147.084 323.749 149.168 321.332 151.822 318.253L151.969 318.082L152.223 317.79C152.494 317.863 152.791 318.045 153.051 318.278L156.954 311.542C158.55 308.779 161.386 307.182 163.419 307.182C165.89 307.182 167.525 309.398 167.38 310.996H169.523L163.419 321.676C162.548 323.168 163.02 323.748 163.855 323.748C165.528 323.748 168.18 321.241 170.903 318.081L171.157 317.789C171.282 317.847 171.402 317.914 171.516 317.991L177.554 307.546H181.334L179.917 310.015C181.805 308.053 183.513 307.181 185.148 307.181C187.255 307.181 188.817 309.253 187.182 312.123L181.733 321.676C180.862 323.168 181.334 323.748 182.169 323.748C183.841 323.748 186.492 321.241 189.217 318.081L189.471 317.789C189.586 317.843 189.697 317.905 189.802 317.976L195.83 307.546H199.608L192.233 320.406L192.186 320.486L192.122 320.592C191.632 321.41 190.887 322.653 191.761 323.022C192.487 323.348 194.74 321.859 197.647 319.172L204.33 307.546H208.109L197.754 325.276C200.732 324.001 203.384 321.676 206.509 318.081L206.763 317.79C206.882 317.844 206.996 317.908 207.105 317.98L208.725 315.21L210.577 311.977C212.758 308.199 215.009 307.037 217.916 307.037C221.478 307.037 223.584 310.776 221.296 314.738L217.736 320.878C219.625 320.841 221.733 319.931 223.439 318.079L223.694 317.787C223.864 317.867 224.026 317.964 224.176 318.077L230.264 307.544H234.043L232.626 310.013C234.516 308.051 236.221 307.18 237.857 307.18C239.962 307.18 241.528 309.251 239.892 312.121L234.442 321.674C233.571 323.166 234.042 323.746 234.878 323.746C236.55 323.746 239.203 321.239 241.925 318.079ZM360.81 282.215C358.52 285.956 356.195 287.736 354.598 287.736C353.763 287.736 353.291 287.156 354.161 285.666L359.428 276.473C361.463 272.949 365.495 273.858 363.642 277.273H363.677L360.81 282.215ZM318.519 287.736C320.08 287.736 322.333 286.028 324.623 282.434L327.564 277.273C329.416 273.858 325.384 272.949 323.35 276.473L318.082 285.666C317.212 287.156 317.683 287.736 318.519 287.736ZM284.706 296.164C283.909 297.581 282.636 297.364 282.636 296.348C282.636 295.367 283.508 294.241 286.415 293.114L284.706 296.164ZM296.151 264.923C295.096 264.923 293.861 265.757 292.734 267.683L287.286 277.128H288.049C297.676 279.358 302.145 264.923 296.151 264.923ZM370.398 281.78L370.143 282.07C367.423 285.23 364.769 287.737 363.096 287.737C362.261 287.737 361.789 287.157 362.659 285.666L375.448 263.542H371.669L366.112 273.133C365.458 272.079 364.222 271.171 362.659 271.171C360.624 271.171 357.792 272.77 356.193 275.53L352.495 281.91C352.482 281.903 352.469 281.895 352.456 281.887L352.431 281.872C352.373 281.837 352.315 281.802 352.261 281.778L352.006 282.07C349.283 285.23 347.006 287.736 345.334 287.736C344.497 287.736 344.027 287.156 344.896 285.666L350.346 276.111C351.983 273.241 350.418 271.169 348.312 271.169C346.676 271.169 344.972 272.04 343.08 274.004L344.497 271.534H340.718L334.681 281.981C334.566 281.904 334.446 281.836 334.321 281.778L334.065 282.07C331.342 285.23 328.691 287.736 327.019 287.736C326.184 287.736 325.713 287.156 326.583 285.666L332.686 274.984H330.542C330.688 273.386 329.054 271.169 326.582 271.169C324.547 271.169 321.712 272.768 320.114 275.527L316.462 281.833L316.256 282.067C313.534 285.226 310.506 287.732 308.836 287.732C307.999 287.732 307.529 287.152 308.399 285.662L312.177 279.051C313.484 276.761 312.866 275.418 311.632 273.928L309.526 271.384C308.981 270.694 308.981 269.931 309.744 269.204L307.782 267.061C305.638 268.988 305.457 271.13 306.8 272.874L307.129 273.31L306.995 273.499L306.995 273.5C305.337 275.842 303.139 278.947 300.732 281.775C300.773 281.834 300.818 281.892 300.866 281.95C300.906 281.998 300.947 282.047 300.99 282.095C297.877 285.675 295.231 287.99 292.26 289.257L297.055 281.047H293.277L292.878 281.702C290.88 285.226 288.59 287.733 285.648 287.733C283.068 287.733 282.598 285.154 284.848 281.303L285.903 279.451C286.611 279.568 287.327 279.628 288.045 279.632C301.488 279.632 307.991 261.65 296.149 261.65C294.077 261.65 291.605 263.104 289.899 266.082L284.014 276.217C281.798 275.056 280.636 272.949 280.636 270.842C280.636 269.099 281.436 267.354 283.068 266.084L281.835 263.867C279.145 265.793 277.947 268.371 277.947 270.914C277.947 273.93 279.656 276.836 282.707 278.434L281.58 280.397C278.928 284.975 279.4 290.06 284.742 290.06C286.34 290.06 287.683 289.588 288.847 288.86L287.864 290.57C282.744 292.13 279.582 294.201 279.582 297.035C279.582 300.667 285.142 301.431 287.864 296.781L290.771 291.804C294.696 290.569 298.547 287.881 302.689 283.085C302.622 282.959 302.543 282.84 302.453 282.73C304.131 280.759 305.555 278.856 308.403 274.984L308.91 275.603C309.383 276.219 309.564 276.983 309.128 277.747L305.131 284.684C303.532 287.479 304.659 290.058 307.711 290.058C309.61 290.058 312.059 288.819 314.096 287.034C314.052 288.772 315.24 290.058 317.395 290.058C318.92 290.058 320.81 289.078 322.625 287.588C322.808 289.042 323.972 290.058 325.895 290.058C327.705 290.058 329.672 288.933 331.615 287.284L330.223 289.696H334.036L339.813 279.631C345.59 272.402 348.17 273.347 346.533 276.144L341.63 284.682C340.033 287.48 341.157 290.058 344.208 290.058C346.218 290.058 348.044 288.674 350.19 286.725C349.99 288.618 351.194 290.058 353.472 290.058C354.997 290.058 356.886 289.078 358.704 287.588C358.886 289.043 360.049 290.058 361.973 290.058C365.098 290.058 368.693 286.717 371.818 283.082C371.562 282.578 370.909 281.997 370.398 281.78ZM261.897 277.274C264.151 273.35 260.298 272.733 258.118 276.475L255.684 280.725C257.1 281.233 259.535 281.307 261.352 278.218L261.897 277.274ZM255.067 290.062C259.354 290.062 263.607 286.721 266.729 283.087C266.476 282.577 265.821 281.997 265.312 281.779L265.059 282.071C262.333 285.231 258.846 287.737 256.192 287.737C253.867 287.737 252.487 286.284 254.23 283.232L254.593 282.579C257.028 283.595 261.605 283.124 264.439 278.219L264.984 277.275C267.019 273.786 265.057 271.171 261.968 271.171C258.918 271.171 256.484 272.769 254.885 275.53L251.206 281.843C251.168 281.823 251.13 281.795 251.094 281.779L250.839 282.071C248.115 285.231 245.464 287.737 243.792 287.737C242.956 287.737 242.486 287.157 243.355 285.666L248.805 276.111C250.44 273.241 248.877 271.169 246.769 271.169C245.134 271.169 243.39 272.078 241.503 274.04L247.533 263.54H243.755L233.099 282.03C232.964 281.932 232.819 281.847 232.667 281.778L232.412 282.069C229.687 285.23 227.036 287.736 225.364 287.736C224.529 287.736 224.057 287.156 224.927 285.666L233.029 271.532H236.119L237.209 269.715H234.084L237.644 263.54H233.866L230.306 269.715H226.891L225.801 271.532H229.251L221.658 284.685C220.06 287.484 221.186 290.062 224.237 290.062C226.115 290.062 228.163 288.849 230.177 287.098L228.678 289.698H232.493L238.233 279.706C244.046 272.404 246.626 273.349 244.991 276.146L240.086 284.684C238.488 287.482 239.614 290.06 242.666 290.06C244.962 290.06 247.512 288.255 249.942 285.855C250.052 288.286 251.975 290.062 255.067 290.062ZM131.372 277.273C133.626 273.349 129.776 272.732 127.596 276.474L125.161 280.723C126.577 281.232 129.013 281.305 130.828 278.217L131.372 277.273ZM150.715 285.665L155.983 276.474C158.017 272.948 162.05 273.857 160.196 277.273L157.254 282.432C154.966 286.027 152.711 287.736 151.15 287.736C150.316 287.736 149.843 287.155 150.715 285.666V285.665ZM208.475 277.273C210.729 273.349 206.879 272.732 204.699 276.474L202.264 280.723C203.68 281.231 206.115 281.305 207.93 278.217L208.475 277.273ZM146.891 286C146.264 288.24 147.461 290.06 150.025 290.06C151.55 290.06 153.44 289.08 155.255 287.591C155.438 289.044 156.601 290.061 158.525 290.061C160.538 290.061 162.743 288.671 164.894 286.715C164.476 288.757 165.433 290.061 167.294 290.061C169.367 290.061 171.692 288.171 173.507 286.427C173.143 288.463 174.344 290.061 176.741 290.061C179.866 290.061 183.461 286.719 186.586 283.085C186.571 283.056 186.551 283.026 186.53 282.997C186.515 282.976 186.499 282.955 186.486 282.934C188.126 281.026 189.614 279.027 190.816 277.412L190.816 277.412L190.816 277.411L190.817 277.411L190.817 277.41C191.145 276.969 191.452 276.558 191.734 276.184C191.233 277.502 190.991 279.173 190.754 280.812V280.812C190.285 284.048 189.835 287.156 187.446 287.156C186.176 287.156 185.666 285.774 185.666 285.774L183.303 287.009C183.303 287.009 183.993 290.061 187.445 290.061C187.769 290.061 188.063 290.032 188.382 290L188.499 289.988C188.518 289.988 188.536 289.979 188.554 289.97C188.572 289.962 188.589 289.953 188.607 289.953C191.383 289.586 194.136 287.897 196.52 285.744C196.578 288.23 198.506 290.061 201.645 290.061C205.932 290.061 210.183 286.72 213.307 283.085C213.053 282.575 212.399 281.995 211.891 281.777L211.637 282.069C208.912 285.229 205.424 287.736 202.774 287.736C200.448 287.736 199.067 286.282 200.811 283.231L201.175 282.577C203.607 283.593 208.185 283.122 211.02 278.217L211.565 277.274C213.599 273.785 211.637 271.17 208.55 271.17C205.5 271.17 203.063 272.768 201.467 275.528L197.797 281.822C197.781 281.817 197.765 281.808 197.749 281.8C197.73 281.791 197.712 281.781 197.693 281.776L197.439 282.067C196.11 283.627 194.583 285.007 192.897 286.173C193.368 284.761 193.614 283.053 193.881 281.206V281.206L193.881 281.206C194.294 278.348 194.755 275.158 196.167 272.222L193.334 270.696C193.05 271.086 192.705 271.568 192.309 272.12L192.309 272.12C190.53 274.605 187.736 278.507 184.941 281.776C184.952 281.791 184.964 281.806 184.976 281.822C184.984 281.831 184.992 281.841 185 281.85L185.002 281.853L185.003 281.854C185.019 281.874 185.036 281.894 185.051 281.914L184.916 282.067C182.192 285.227 179.54 287.734 177.868 287.734C177.033 287.734 176.561 287.154 177.432 285.664L185.497 271.529H181.718L174.998 283.263C172.128 285.879 169.913 287.332 169.184 287.005C168.308 286.635 169.059 285.387 169.55 284.57L169.551 284.568L169.56 284.553C169.581 284.52 169.6 284.487 169.619 284.455C169.632 284.433 169.645 284.411 169.658 284.39L177.031 271.53H173.253L167.24 281.935L167.206 281.914C167.12 281.861 167.034 281.808 166.953 281.774L166.699 282.064C163.974 285.224 161.323 287.731 159.651 287.731C158.816 287.731 158.344 287.151 159.215 285.661L165.318 274.979H163.174C163.32 273.381 161.686 271.163 159.214 271.163C157.18 271.163 154.346 272.763 152.748 275.523L148.918 282.135C148.741 281.991 148.548 281.869 148.342 281.772L148.088 282.062C145.364 285.222 142.23 287.729 139.578 287.729C137.254 287.729 135.872 286.276 137.615 283.225L141.502 276.469C143.682 272.727 147.533 273.344 145.279 277.267L144.734 278.212H147.824L148.368 277.267C150.402 273.78 148.441 271.163 145.354 271.163C142.302 271.163 140.22 272.763 138.624 275.523L134.868 281.966C134.758 281.892 134.642 281.827 134.521 281.772L134.267 282.062C131.543 285.222 128.32 287.729 125.669 287.729C123.343 287.729 121.962 286.276 123.706 283.225L124.069 282.571C126.503 283.589 131.081 283.116 133.915 278.213L134.46 277.267C136.494 273.781 134.532 271.164 131.444 271.164C128.394 271.164 125.958 272.762 124.361 275.524L120.401 282.316C118.038 286.349 120.074 290.054 124.541 290.054C127.87 290.054 130.554 288.039 133.329 285.437C133.231 288.074 135.187 290.054 138.45 290.054C141.538 290.06 144.25 288.326 146.891 286ZM113.07 266.809L110.019 272.04V272.041C113.87 271.968 116.015 271.132 117.465 268.408C119.355 264.847 115.83 262.052 113.07 266.809ZM105.951 289.26C103.698 289.26 101.918 288.752 100.501 287.954C101.155 287.19 101.808 286.245 102.391 285.265L108.747 274.257L109.764 274.365C118.63 276.22 115.105 289.26 105.951 289.26ZM115.288 273.785C122.916 271.204 123.497 261.65 115.977 261.65C113.906 261.65 111.436 263.103 109.729 266.082L99.556 283.666C99.1362 284.421 98.6503 285.138 98.104 285.807C95.488 282.212 96.251 276.836 99.92 274.473L98.393 272.547C90.473 277.597 92.799 292.164 106.023 292.164C117.322 292.166 122.553 278.618 115.288 273.785Z" fill="white"/>
</svg>
